<?xml version="1.0" encoding="UTF-8"?>
<!DOCTYPE svg PUBLIC "-//W3C//DTD SVG 1.1//EN" "http://www.w3.org/Graphics/SVG/1.1/DTD/svg11.dtd">
<!-- Creator: CorelDRAW (Evaluation Version) -->
<svg xmlns="http://www.w3.org/2000/svg" xml:space="preserve" width="3.32209in" height="7.88922in" version="1.1" style="shape-rendering:geometricPrecision; text-rendering:geometricPrecision; image-rendering:optimizeQuality; fill-rule:evenodd; clip-rule:evenodd"
viewBox="0 0 802.94 1906.8"
 xmlns:xlink="http://www.w3.org/1999/xlink"
 xmlns:xodm="http://www.corel.com/coreldraw/odm/2003">
 <defs>
  <style type="text/css">
   <![CDATA[
    .str1 {stroke:#1C2821;stroke-width:1.68;stroke-miterlimit:2.61313}
    .str2 {stroke:#1C2821;stroke-width:1.68;stroke-miterlimit:2.61313}
    .str0 {stroke:#2D2A2B;stroke-width:0.73;stroke-miterlimit:2.61313}
    .fil0 {fill:none}
    .fil1 {fill:#64A48E}
    .fil3 {fill:#157F6B}
    .fil2 {fill:#17372F}
    .fil4 {fill:#17372F;fill-rule:nonzero}
   ]]>
  </style>
 </defs>
 <g id="Layer_x0020_1">
  <metadata id="CorelCorpID_0Corel-Layer"/>
  <g id="_971024704">
   <polygon class="fil0 str0" points="159.8,579.48 621.93,579.48 621.93,896.58 159.8,896.58 "/>
   <rect class="fil1 str1" x="463.69" y="0.84" width="316.48" height="1473.77"/>
   <polygon class="fil2 str2" points="1.56,0.84 318.05,0.84 318.05,579.02 621.93,579.48 159.8,896.58 318.05,896.58 318.05,1474.61 159.93,1704.13 160.15,1474.61 1.56,1474.61 "/>
   <polygon class="fil3 str1" points="159.8,896.58 621.93,579.48 621.93,1474.61 463.69,1474.61 463.69,895.97 "/>
  </g>
  <path class="fil4" d="M34.79 1732.18c0,6.34 -0.3,12.08 -0.6,17.22 -0.3,5.14 -0.91,9.37 -1.21,12.99l2.11 0c3.63,-5.74 7.86,-10.27 12.99,-13.9 5.14,-3.63 10.57,-6.35 16.92,-8.16 6.34,-1.81 12.69,-2.72 19.34,-2.72 12.69,0 23.26,2.11 32.02,6.34 8.76,3.93 15.71,10.57 20.24,19.34 4.53,8.76 6.95,19.94 6.95,34.14l0 106.35 -34.74 0 0 -100.3c0,-12.69 -2.42,-22.06 -7.55,-28.1 -5.14,-6.34 -13.29,-9.37 -24.17,-9.37 -10.57,0 -19.03,2.11 -25.38,6.65 -6.04,4.23 -10.27,10.57 -12.99,19.03 -2.72,8.46 -3.93,18.73 -3.93,31.12l0 80.97 -34.74 0 0 -229.61 34.74 0 0 58.01z"/>
  <path id="_1" class="fil4" d="M256.85 1737.31c14.5,0 26.89,3.02 37.46,9.06 10.57,5.74 18.43,14.2 24.17,25.38 5.74,11.18 8.46,24.17 8.46,39.58l0 18.73 -108.76 0c0.3,15.71 4.53,27.8 12.69,36.25 8.16,8.76 19.94,12.99 34.74,12.99 10.57,0 19.64,-0.91 27.8,-3.02 8.16,-1.81 16.31,-4.83 25.08,-8.76l0 28.1c-8.16,3.93 -16.31,6.65 -24.77,8.46 -8.46,1.81 -18.73,2.72 -30.82,2.72 -15.71,0 -29.61,-3.02 -41.69,-9.37 -12.39,-6.04 -21.75,-15.41 -28.7,-27.8 -6.65,-12.39 -9.97,-27.8 -9.97,-46.22 0,-18.43 3.02,-34.14 9.06,-46.83 6.35,-12.69 15.11,-22.36 26.29,-29 11.18,-6.95 24.17,-10.27 38.97,-10.27zm0.3 26.59c-11.18,0 -19.94,3.63 -26.59,10.57 -6.65,6.95 -10.57,17.22 -11.78,30.51l73.72 0c0,-8.16 -1.21,-15.41 -3.93,-21.45 -2.42,-6.04 -6.35,-10.88 -11.48,-14.5 -5.14,-3.32 -11.78,-5.14 -19.94,-5.14z"/>
  <path id="_2" class="fil4" d="M432.39 1737.62c20.24,0 35.35,4.53 45.32,13.9 9.97,9.06 15.11,22.96 15.11,41.99l0 110.27 -24.77 0 -6.65 -22.66 -1.21 0c-4.53,5.74 -9.37,10.57 -14.5,14.5 -4.83,3.93 -10.57,6.65 -16.92,8.46 -6.35,1.81 -14.2,2.72 -23.26,2.72 -9.67,0 -18.43,-1.81 -25.98,-5.44 -7.86,-3.32 -13.9,-8.76 -18.43,-16.31 -4.53,-7.25 -6.65,-16.62 -6.65,-27.8 0,-16.62 6.34,-29.31 19.03,-38.07 12.39,-8.76 31.72,-13.6 57.4,-14.5l27.49 -0.91 0 -7.55c0,-11.78 -2.72,-20.24 -7.86,-24.77 -5.14,-4.83 -12.69,-7.25 -22.06,-7.25 -8.16,0 -16.01,1.21 -23.57,3.93 -7.86,2.42 -15.41,5.14 -22.36,8.46l-10.27 -24.77c7.55,-3.93 16.62,-7.25 26.89,-9.97 10.57,-2.72 21.45,-4.23 33.23,-4.23zm4.83 89.13c-17.52,0.6 -29.61,3.32 -36.56,8.46 -6.95,5.14 -10.27,12.08 -10.27,21.45 0,8.16 2.42,13.9 7.25,17.82 4.83,3.93 11.18,5.74 18.73,5.74 12.08,0 22.06,-3.32 29.91,-9.97 8.16,-6.95 12.08,-16.92 12.08,-30.21l0 -14.2 -21.15 0.91z"/>
  <path id="_3" class="fil4" d="M622.12 1737.31c3.02,0 6.35,0.3 9.97,0.6 3.32,0.3 6.34,0.91 8.76,1.51l-3.93 32.33c-2.42,-0.6 -5.14,-1.21 -8.16,-1.51 -3.02,-0.3 -6.34,-0.6 -9.67,-0.6 -5.74,0 -11.18,0.91 -16.31,3.02 -5.14,2.11 -9.97,5.44 -14.2,9.37 -4.23,3.93 -7.55,9.06 -9.97,15.11 -2.72,6.04 -3.93,13.29 -3.93,21.45l0 85.2 -34.74 0 0 -163.45 27.49 0 4.53 29 1.51 0c3.32,-5.74 7.55,-11.18 12.39,-16.01 4.83,-4.83 10.27,-8.76 16.31,-11.48 6.35,-3.02 12.99,-4.53 19.94,-4.53z"/>
  <path id="_4" class="fil4" d="M719.1 1906.8c-19.34,0 -35.05,-6.95 -46.83,-21.15 -11.78,-14.2 -17.52,-35.35 -17.52,-63.14 0,-28.1 6.04,-49.25 17.83,-63.45 11.78,-14.5 27.8,-21.75 47.43,-21.75 8.16,0 15.11,1.21 21.15,3.32 6.04,2.11 11.48,4.83 16.01,8.76 4.53,3.63 8.16,7.55 11.18,12.08l1.81 0c-0.3,-3.02 -0.91,-7.55 -1.51,-13.29 -0.3,-5.74 -0.6,-10.57 -0.6,-14.5l0 -59.52 34.74 0 0 229.61 -27.19 0 -6.04 -21.75 -1.51 0c-3.02,4.53 -6.95,8.76 -11.48,12.69 -4.53,3.63 -9.67,6.65 -15.71,8.76 -6.35,2.12 -13.6,3.32 -21.75,3.32zm9.37 -28.4c15.11,0 25.68,-4.23 31.72,-12.39 6.34,-8.46 9.37,-21.15 9.37,-38.37l0 -4.83c0,-18.43 -3.02,-32.33 -8.76,-42 -5.74,-9.97 -16.62,-14.8 -32.63,-14.8 -12.39,0 -21.75,5.14 -28.1,15.11 -6.34,10.27 -9.67,24.17 -9.67,41.99 0,17.83 3.32,31.72 9.67,41.09 6.35,9.37 16.01,14.2 28.4,14.2z"/>
 </g>
</svg>
